<svg width="60" height="60" viewBox="0 0 60 60" fill="none" xmlns="http://www.w3.org/2000/svg">
<path d="M49.3764 17.0168L48.6847 17.2418L45.0014 17.5668L43.943 19.2335L43.1847 18.9918L40.193 16.3335L39.7597 14.9501L39.168 13.4668L37.3097 11.8001L35.118 11.3751L35.068 12.3751L37.218 14.4751L38.268 15.7085L37.0847 16.3335L36.1264 16.0501L34.6847 15.4418V14.2835L32.8514 13.5001L32.2264 16.2418L30.318 16.6668L30.5097 18.2001L33.0097 18.6751L33.443 16.2335L35.493 16.5418L36.443 17.1001H37.9764L39.0014 19.1668L41.7847 21.9835L41.5764 23.0835L39.3347 22.8001L35.468 24.7501L32.6847 28.0835L32.3264 29.5668H31.318L29.4597 28.7335L27.6514 29.5668L28.1014 31.4751L28.8847 30.5668H30.2764L30.1764 32.2335L31.3264 32.5668L32.5014 33.8918L34.3347 33.3335L36.4764 33.6668L38.9764 34.3335L40.2097 34.4835L42.3097 36.8668L46.368 39.2501L43.743 44.2501L40.9764 45.5335L39.9264 48.4001L35.918 51.0751L35.493 52.6168C39.1347 51.7271 42.5084 49.9731 45.3285 47.5032C48.1486 45.0334 50.3321 41.9204 51.6941 38.4278C53.0562 34.9352 53.5567 31.1659 53.1532 27.4389C52.7498 23.7119 51.4542 20.137 49.3764 17.0168Z" fill="#BFEA81"/>
<path d="M32.6855 42.1917L31.0188 39.0417L32.5438 35.8334L30.9855 35.3667L29.2355 33.6084L25.3521 32.7751L24.0688 30.0001V31.6001H23.5021L20.1688 27.0667V23.3334L17.7188 19.3501L13.8271 20.0417H11.1938L9.86879 19.2084L11.5355 17.8751L9.86879 18.2584C7.80529 21.802 6.7121 25.8268 6.69933 29.9274C6.68657 34.028 7.75468 38.0596 9.79607 41.616C11.8375 45.1724 14.78 48.128 18.3274 50.1851C21.8747 52.2421 25.9015 53.328 30.0021 53.3334C30.9804 53.3232 31.9572 53.2536 32.9271 53.1251L32.6855 50.3001C32.6855 50.3001 33.7605 46.1334 33.7605 45.9667C33.7605 45.8001 32.6855 42.1917 32.6855 42.1917Z" fill="#BFEA81"/>
<path d="M15.3404 14.1666L19.5071 13.5833L21.4154 12.5416L23.5654 13.1583L26.9988 12.9666L28.1821 11.1166L29.8904 11.3999L34.0571 11.0083L35.2071 9.74161L36.8738 8.66661L39.1571 9.00827L39.9904 8.88327C35.3059 6.66268 30.0138 6.07081 24.9545 7.20164C19.8952 8.33248 15.3587 11.1212 12.0654 15.1249L15.3404 14.1666ZM30.9821 8.98327L33.3321 7.67494L34.8654 8.55827L32.6488 10.2249L30.5321 10.4416L29.5821 9.82494L30.9821 8.98327ZM23.9238 9.16661L24.9988 9.61661L26.3571 9.16661L27.1071 10.4666L23.9238 11.2999L22.3988 10.4166C22.3988 10.4166 23.8904 9.45827 23.9238 9.16661Z" fill="#BFEA81"/>
</svg>
