<svg width="60" height="60" viewBox="0 0 60 60" fill="none" xmlns="http://www.w3.org/2000/svg">
<path d="M44 53.3429V46.0214C44 43.9714 43.7071 41.9214 42.5357 39.8714C41.3643 37.8214 39.9 36.0643 37.85 34.8929C35.8 33.4286 31.4071 33.1357 29.3571 33.1357L23.0221 38.515L26.4286 41.9214L20.5714 50.7071L25.5633 45.2827L26.4286 41.9214L22.6214 38.1143L17.6429 33.1357C15.3 33.1357 10.9071 33.4286 8.85714 34.8929C6.80714 36.0643 5.63571 37.8214 4.46429 39.8714C3.29286 41.9214 3 43.6786 3 46.0214V53.3429C3 53.3429 10.6143 56.5643 23.5 56.5643C36.3857 56.5643 44 53.3429 44 53.3429ZM23.5 10C17.9357 10 14.7143 15.2714 15.5929 21.1286C16.4714 26.9857 19.4 31.0857 23.5 31.0857C27.6 31.0857 30.5286 26.9857 31.4071 21.1286C32.2857 14.9786 29.0643 10 23.5 10Z" fill="#BFEA81"/>
</svg>
