<svg width="49" height="98" viewBox="0 0 49 98" fill="none" xmlns="http://www.w3.org/2000/svg">
<path d="M18.7 98H17.7V99H18.7V98ZM18.7 37.8H19.7V36.8H18.7V37.8ZM0.5 37.8H-0.5V38.8H0.5V37.8ZM0.5 9.79999V8.79999H-0.5V9.79999H0.5ZM17.58 8.68L18.2871 9.38711L18.2871 9.3871L17.58 8.68ZM18.7 -7.62939e-06V-1.00001H17.7V-7.62939e-06H18.7ZM48.1 -7.62939e-06H49.1V-1.00001H48.1V-7.62939e-06ZM48.1 98V99H49.1V98H48.1ZM19.7 98V37.8H17.7V98H19.7ZM18.7 36.8H0.5V38.8H18.7V36.8ZM1.5 37.8V9.79999H-0.5V37.8H1.5ZM0.5 10.8H13.8V8.79999H0.5V10.8ZM13.8 10.8C15.6687 10.8 17.2598 10.4144 18.2871 9.38711L16.8729 7.97289C16.4069 8.4389 15.4779 8.79999 13.8 8.79999V10.8ZM18.2871 9.3871C19.3144 8.35978 19.7 6.76874 19.7 4.9H17.7C17.7 6.57792 17.3389 7.50688 16.8729 7.97289L18.2871 9.3871ZM19.7 4.9V-7.62939e-06H17.7V4.9H19.7ZM18.7 0.999992H48.1V-1.00001H18.7V0.999992ZM47.1 -7.62939e-06V98H49.1V-7.62939e-06H47.1ZM48.1 97H18.7V99H48.1V97Z" fill="url(#paint0_linear_1835_27313)"/>
<defs>
<linearGradient id="paint0_linear_1835_27313" x1="26.5" y1="-42" x2="26.5" y2="98" gradientUnits="userSpaceOnUse">
<stop stop-color="#BFEA81"/>
<stop offset="1" stop-color="#BFEA81" stop-opacity="0"/>
</linearGradient>
</defs>
</svg>
