<svg width="51" height="50" viewBox="0 0 51 50" fill="none" xmlns="http://www.w3.org/2000/svg">
<path d="M21.8529 25V43.2292C21.8529 43.5055 21.7431 43.7704 21.5478 43.9658C21.3524 44.1611 21.0875 44.2709 20.8112 44.2709H14.5612C14.2849 44.2709 14.02 44.1611 13.8246 43.9658C13.6293 43.7704 13.5195 43.5055 13.5195 43.2292V6.77085C13.5195 6.49459 13.6293 6.22963 13.8246 6.03428C14.02 5.83893 14.2849 5.72919 14.5612 5.72919H17.6862" stroke="white" stroke-width="2" stroke-linejoin="round"/>
<path d="M21.169 5.72919H15.1055C14.356 5.72919 13.8518 6.49663 14.1492 7.1844L29.9151 43.6427C29.9958 43.8293 30.1293 43.9881 30.2991 44.0998C30.469 44.2114 30.6678 44.2708 30.8711 44.2709H36.9346C37.6841 44.2709 38.1883 43.5034 37.8909 42.8156L22.1252 6.35731C22.0445 6.17068 21.9109 6.01176 21.741 5.90014C21.571 5.78853 21.3723 5.7291 21.169 5.72919Z" stroke="white" stroke-width="2" stroke-linejoin="round"/>
<path d="M30.1875 25V6.77083C30.1875 6.49457 30.2972 6.22962 30.4926 6.03427C30.6879 5.83891 30.9529 5.72917 31.2292 5.72917H37.4792C37.7554 5.72917 38.0204 5.83891 38.2157 6.03427C38.4111 6.22962 38.5208 6.49457 38.5208 6.77083V43.2292C38.5208 43.5054 38.4111 43.7704 38.2157 43.9657C38.0204 44.1611 37.7554 44.2708 37.4792 44.2708H34.3542" stroke="white" stroke-width="2" stroke-linejoin="round"/>
</svg>
