<svg width="51" height="50" viewBox="0 0 51 50" fill="none" xmlns="http://www.w3.org/2000/svg">
<g clip-path="url(#clip0_1835_26916)">
<path d="M19.0605 39.7909C13.1035 39.27 7.84227 37.0606 4.42023 33.6385C2.46711 31.6895 1.28302 29.5736 0.749983 27.0793C0.505842 25.944 0.505842 24.0642 0.754052 22.9167C1.49868 19.4499 3.73664 16.4185 7.26447 14.1032C15.3089 8.82978 27.6339 8.85419 35.6051 14.1642C36.6631 14.8682 37.3467 15.4297 38.3069 16.3737C39.5154 17.5659 40.3659 18.7541 41.261 20.4956C41.2936 20.5607 41.4604 20.6421 41.6273 20.6747C42.1929 20.7927 42.9456 21.2321 43.5519 21.7977C44.0239 22.2372 44.386 22.7173 45.2853 24.0764C46.1927 25.4476 50.2943 31.779 50.5425 32.194C50.6401 32.3568 50.4489 32.6131 50.2332 32.6131C50.0786 32.6131 49.9728 32.5114 49.7449 32.1533C49.5862 31.9011 48.5405 30.2775 47.4215 28.5441C43.4624 22.4162 43.2508 22.1314 42.1481 21.578L41.5703 21.2891H39.8694C38.1686 21.2891 38.1686 21.2891 38.1279 21.4681C37.9041 22.4488 37.8594 22.6888 37.9082 22.7336C37.9407 22.7621 38.9051 23.3114 40.0526 23.9543L42.14 25.1221L42.0097 25.3947C41.9365 25.5453 41.8551 25.6673 41.8266 25.6673C41.7982 25.6673 40.0403 24.6948 37.9204 23.5026C35.8004 22.3145 33.9409 21.3054 33.7903 21.2647C33.1881 21.0978 32.2604 21.7652 32.2604 22.3674C32.2604 22.9777 32.4394 23.1527 36.1666 26.2044C38.4901 28.1087 39.8206 29.2521 40.0241 29.5207C40.3944 30.013 40.7687 30.7373 41.1105 31.6284C41.7168 33.1991 42.7015 34.0739 44.3169 34.4808L44.8499 34.6151L44.8052 34.904C44.7807 35.0627 44.7482 35.2092 44.7278 35.2295C44.6587 35.3068 43.5885 34.965 42.97 34.668C42.0016 34.2041 41.3343 33.5409 40.6792 32.3853C40.6751 32.3771 40.2926 32.5073 39.8369 32.6742C39.0231 32.9712 38.9824 32.9956 38.2134 33.7484C34.9297 36.9548 30.2178 39.0015 24.5333 39.6973C23.6015 39.8275 20.0452 39.8804 19.0605 39.7909ZM24.7205 38.8062C27.3288 38.4603 29.3551 37.9435 31.471 37.0768C33.6927 36.1654 35.7923 34.8592 37.2571 33.4676L37.8349 32.9183L36.3782 32.2225C34.8239 31.4779 34.6693 31.3558 34.4699 30.6926C34.3437 30.2735 34.4861 29.8259 34.8849 29.3986L35.1942 29.0609L34.5187 28.5482C33.9857 28.1413 33.8188 27.9663 33.713 27.6978C33.5462 27.2624 33.6072 26.7904 33.8758 26.412L34.0792 26.1231L31.9471 25.7487C30.7752 25.5412 29.6806 25.3337 29.5179 25.2849C29.1964 25.1913 28.875 24.8251 28.7895 24.4711C28.7448 24.2798 29.7905 19.1773 30.0224 18.4489C30.1282 18.1234 30.5718 17.7287 30.9095 17.6677C31.2635 17.6026 37.546 18.7053 37.8594 18.8884C38.3558 19.1773 38.5104 19.6411 38.3558 20.3573L38.2907 20.6543H38.6365C38.8278 20.6543 39.2794 20.6299 39.6416 20.6014L40.3008 20.5485L39.9752 19.9422C38.9946 18.1153 37.2083 16.2679 35.007 14.8031C33.9775 14.1195 31.7843 13.0371 30.4619 12.5651C28.582 11.8937 26.3074 11.3892 24.1224 11.1613C22.922 11.0352 19.7848 11.0392 18.6211 11.1654C15.8338 11.4665 13.3029 12.0972 11.0893 13.0412C5.96239 15.2263 2.51593 18.8477 1.63296 22.9737C1.40102 24.0519 1.38475 25.94 1.59634 26.9206C2.06427 29.0894 3.08153 30.9652 4.73761 32.7108C8.11489 36.2671 13.2744 38.4562 19.4593 38.9486C20.2894 39.0137 23.8782 38.916 24.7205 38.8062ZM23.5934 34.9243C23.276 34.8308 22.9505 34.4523 22.8813 34.0902C22.8366 33.8542 22.8895 33.6914 23.2272 33.0363C24.5944 30.3915 25.1885 27.9582 25.1885 25.0082C25.1885 22.1558 24.6636 19.9341 23.3574 17.273C23.0766 16.7033 22.8488 16.1703 22.8488 16.093C22.8488 15.8081 23.0848 15.3972 23.3411 15.2385C23.6911 15.0187 24.2811 15.0594 24.5659 15.3239C24.6758 15.4256 24.9565 15.8895 25.1925 16.3534C26.1284 18.1885 26.7672 20.2027 27.0846 22.2982C27.2799 23.5962 27.3206 26.0539 27.1619 27.242C26.873 29.4312 26.2952 31.3884 25.3675 33.3008C24.806 34.4564 24.456 34.9325 24.1631 34.9325C24.1061 34.9325 24.0084 34.9488 23.9515 34.965C23.8945 34.9813 23.7318 34.965 23.5934 34.9243ZM19.7889 32.9346C19.3006 32.7922 18.9466 32.19 19.089 31.7424C19.1216 31.6325 19.3535 31.132 19.6017 30.6275C20.6474 28.4912 21.0828 26.2045 20.8712 23.9584C20.6963 22.111 20.3667 20.9473 19.5325 19.2464C18.9751 18.1031 18.9466 17.9281 19.2721 17.4642C19.5814 17.0248 20.3545 16.9556 20.7573 17.3259C21.0381 17.5822 21.9129 19.4092 22.2506 20.4427C23.3655 23.8607 23.1946 27.535 21.7664 30.892C21.0299 32.6131 20.5132 33.1462 19.7889 32.9346ZM15.8664 30.9164C15.5652 30.7821 15.3048 30.4606 15.2316 30.1392C15.1868 29.9439 15.2641 29.7241 15.6222 28.9999C16.9406 26.3306 16.9528 23.763 15.667 21.1548C15.1014 20.0114 15.0892 19.7836 15.5652 19.3319C15.8013 19.1081 15.903 19.0715 16.2326 19.0715C16.79 19.0715 17.0789 19.3522 17.5753 20.3736C18.3403 21.9442 18.6536 23.3073 18.6496 25.0529C18.6455 26.8474 18.3525 28.0803 17.5387 29.7364C17.0708 30.6844 16.8388 30.9367 16.3709 30.9977C16.2285 31.01 16.0006 30.9774 15.8664 30.9164ZM12.2042 29.0365C11.9642 28.9388 11.6916 28.6133 11.6102 28.3285C11.5207 28.0111 11.5939 27.7588 11.952 27.1688C12.4158 26.4079 12.5216 26.001 12.5216 25.0082C12.5216 24.0153 12.4158 23.6044 11.952 22.8475C11.7933 22.5912 11.6387 22.2819 11.602 22.1599C11.4515 21.6594 11.8706 21.0449 12.4321 20.9392C12.9082 20.8496 13.2337 21.0612 13.6732 21.7448C14.9386 23.7224 14.9386 26.3591 13.6732 28.3203C13.2256 29.008 12.7291 29.2521 12.2042 29.0365ZM39.4788 32.1045C39.902 31.954 40.2682 31.8115 40.2926 31.7871C40.317 31.7627 40.2357 31.4942 40.1095 31.1849C39.8572 30.5542 39.8979 30.5705 38.9946 30.7414C38.0221 30.9286 37.4565 30.7617 36.3904 29.9764C36.1015 29.7608 35.8004 29.5858 35.7272 29.5858C35.6499 29.5858 35.4871 29.6957 35.3569 29.834C35.0843 30.127 35.0436 30.5827 35.2633 30.8553C35.4586 31.0913 38.132 32.3649 38.4494 32.3731C38.5918 32.3771 39.0516 32.2551 39.4788 32.1045ZM39.0556 30.0578C39.4503 29.9764 39.4951 29.952 39.4259 29.8218C39.3486 29.6794 35.6499 26.6114 35.3284 26.4201C35.0639 26.2655 34.8483 26.3021 34.6286 26.5381C33.9857 27.2258 34.063 27.3723 35.7272 28.6459C37.7373 30.188 37.9529 30.2775 39.0556 30.0578ZM34.0915 25.4069C34.0915 25.3866 33.6723 25.0244 33.1596 24.6053C31.8942 23.5637 31.6216 23.173 31.6216 22.3999C31.6216 21.757 32.0529 21.1345 32.7446 20.7764C33.0864 20.5974 33.7008 20.5445 34.0467 20.6584C34.2908 20.7398 35.3976 21.3379 36.9276 22.2168L37.249 22.404L37.5135 21.1426C37.7861 19.8527 37.7902 19.5109 37.5379 19.4336C37.4606 19.4092 35.9835 19.1406 34.2583 18.8355C31.1902 18.2943 30.8525 18.2617 30.7101 18.4937C30.6328 18.6157 29.465 24.0275 29.465 24.2554C29.465 24.3693 29.522 24.5117 29.5952 24.5728C29.6644 24.6338 30.6613 24.8495 31.8087 25.0529C34.0223 25.4517 34.0915 25.4639 34.0915 25.4069Z" fill="white"/>
</g>
<defs>
<clipPath id="clip0_1835_26916">
<rect width="50" height="50" fill="white" transform="translate(0.567383)"/>
</clipPath>
</defs>
</svg>
