<svg width="51" height="50" viewBox="0 0 51 50" fill="none" xmlns="http://www.w3.org/2000/svg">
<g clip-path="url(#clip0_1835_26923)">
<path d="M43.0758 33.9838H7.92178C7.70586 33.9838 7.53115 33.8091 7.53115 33.5931C7.53115 32.947 7.00547 32.4214 6.35938 32.4214C6.14346 32.4214 5.96875 32.2467 5.96875 32.0308V20.3128C5.96875 20.0969 6.14346 19.9221 6.35938 19.9221C7.00547 19.9221 7.53115 19.3966 7.53115 18.7504C7.53115 18.5344 7.70586 18.3597 7.92178 18.3597C7.97308 18.3597 8.02388 18.3698 8.07128 18.3894C8.11868 18.409 8.16174 18.4378 8.19801 18.4741C8.23428 18.5104 8.26305 18.5535 8.28266 18.6009C8.30227 18.6483 8.31234 18.6991 8.3123 18.7504C8.3123 19.6933 7.64023 20.4829 6.7499 20.6645V31.6792C7.51436 31.8356 8.11699 32.4382 8.27344 33.2027H42.7242C42.8807 32.4383 43.4832 31.8356 44.2477 31.6792V20.6645C43.3574 20.483 42.6854 19.6933 42.6854 18.7504C42.6854 18.5344 42.8601 18.3597 43.0759 18.3597C43.2918 18.3597 43.4665 18.5344 43.4665 18.7504C43.4665 19.3966 43.9922 19.9221 44.6383 19.9221C44.8542 19.9221 45.0289 20.0969 45.0289 20.3128V32.0308C45.0289 32.0821 45.0188 32.1329 44.9992 32.1803C44.9796 32.2277 44.9508 32.2708 44.9145 32.3071C44.8783 32.3433 44.8352 32.3721 44.7878 32.3917C44.7404 32.4113 44.6896 32.4214 44.6383 32.4214C43.9922 32.4214 43.4665 32.947 43.4665 33.5931C43.4665 33.6444 43.4564 33.6952 43.4368 33.7426C43.4171 33.79 43.3883 33.8331 43.3521 33.8694C43.3158 33.9057 43.2727 33.9344 43.2253 33.9541C43.1779 33.9737 43.1271 33.9838 43.0758 33.9838Z" fill="white"/>
<path d="M46.2005 35.5462H4.79688C4.58096 35.5462 4.40625 35.3715 4.40625 35.1556V18.7504C4.40625 18.5344 4.58096 18.3597 4.79688 18.3597C4.84818 18.3597 4.89898 18.3698 4.94638 18.3894C4.99378 18.409 5.03684 18.4378 5.07311 18.4741C5.10938 18.5104 5.13814 18.5535 5.15776 18.6009C5.17737 18.6483 5.18744 18.6991 5.1874 18.7504V34.765H45.8101V18.7504C45.8101 18.5344 45.9848 18.3597 46.2006 18.3597C46.4165 18.3597 46.5912 18.5344 46.5912 18.7504V35.1556C46.5912 35.2069 46.5811 35.2577 46.5615 35.3051C46.5418 35.3525 46.513 35.3956 46.4768 35.4319C46.4405 35.4681 46.3974 35.4969 46.35 35.5165C46.3026 35.5361 46.2518 35.5462 46.2005 35.5462Z" fill="white"/>
<path d="M25.4997 30.859C23.8305 30.859 21.5938 28.3858 21.5938 25.8568H22.3749C22.3749 28.124 24.4706 30.0778 25.4997 30.0778C26.5289 30.0778 28.6245 28.124 28.6245 25.8568H29.4058C29.4058 28.3858 27.169 30.859 25.4997 30.859Z" fill="white"/>
<path d="M30.3034 31.6898C30.2568 31.6898 30.2096 31.6814 30.1638 31.6639C27.4531 30.624 27.4531 30.1808 27.4531 29.9161C27.4531 29.7002 27.6278 29.5255 27.8438 29.5255C27.9339 29.5255 28.0212 29.5567 28.091 29.6137C28.1607 29.6707 28.2087 29.75 28.2268 29.8383C28.3466 29.9764 28.9331 30.3547 30.4429 30.9346C30.528 30.9673 30.599 31.0287 30.6436 31.1083C30.6882 31.1878 30.7035 31.2805 30.6869 31.3701C30.6704 31.4598 30.623 31.5409 30.5529 31.5993C30.4829 31.6577 30.3946 31.6897 30.3034 31.6898Z" fill="white"/>
<path d="M27.8428 30.3066C27.6269 30.3066 27.4522 30.132 27.4522 29.9161V28.9587C27.4522 28.7428 27.6269 28.5681 27.8428 28.5681C28.0587 28.5681 28.2335 28.7428 28.2335 28.9587V29.9161C28.2335 29.9674 28.2234 30.0182 28.2038 30.0656C28.1841 30.113 28.1554 30.1561 28.1191 30.1923C28.0828 30.2286 28.0397 30.2574 27.9923 30.277C27.9449 30.2966 27.8941 30.3067 27.8428 30.3066ZM20.6991 31.6891C20.6201 31.6891 20.5431 31.6652 20.478 31.6205C20.4129 31.5758 20.3629 31.5125 20.3345 31.4389C20.2974 31.3421 20.3002 31.2346 20.3423 31.1399C20.3843 31.0453 20.4622 30.9711 20.5588 30.9338C22.0678 30.3532 22.6537 29.9756 22.7727 29.8383C22.7908 29.75 22.8387 29.6707 22.9085 29.6137C22.9783 29.5567 23.0656 29.5255 23.1557 29.5255C23.3716 29.5255 23.5463 29.7002 23.5463 29.9161C23.5463 30.1801 23.5463 30.6218 20.8395 31.6632C20.7946 31.6802 20.7471 31.6889 20.6991 31.6891Z" fill="white"/>
<path d="M23.1562 30.3066C22.9403 30.3066 22.7656 30.132 22.7656 29.9161V28.9595C22.7656 28.7436 22.9403 28.5688 23.1562 28.5688C23.3722 28.5688 23.5469 28.7436 23.5469 28.9595V29.9161C23.5469 29.9674 23.5368 30.0182 23.5172 30.0656C23.4976 30.113 23.4688 30.1561 23.4325 30.1923C23.3962 30.2286 23.3532 30.2574 23.3058 30.277C23.2584 30.2966 23.2076 30.3067 23.1562 30.3066Z" fill="white"/>
<path d="M25.4995 33.9838C23.3979 33.9838 21.4234 32.9516 20.0822 31.1511C19.0417 29.7574 18.4688 27.9889 18.4688 26.1718C18.4688 21.8645 21.6226 18.3597 25.4995 18.3597C29.3766 18.3597 32.5304 21.8645 32.5304 26.1718C32.5304 30.479 29.3766 33.9838 25.4995 33.9838ZM25.4995 19.141C22.0536 19.141 19.2499 22.2948 19.2499 26.1718C19.2499 27.8212 19.768 29.424 20.7086 30.6843C21.9011 32.2848 23.6474 33.2026 25.4996 33.2026C28.9456 33.2026 31.7492 30.0488 31.7492 26.1718C31.7491 22.2948 28.9455 19.141 25.4995 19.141Z" fill="white"/>
<path d="M21.9837 26.1718C21.9583 26.1719 21.933 26.1694 21.9082 26.1642C21.8255 26.1481 21.7503 26.1056 21.6938 26.0432C21.6373 25.9808 21.6025 25.9017 21.5946 25.8179C21.439 24.1585 21.7762 22.8609 22.5955 21.9614C24.4211 19.9566 27.8603 20.6996 27.9236 20.7118C28.0053 20.7292 28.0792 20.7723 28.1346 20.8348C28.19 20.8972 28.224 20.9758 28.2315 21.059C28.239 21.1421 28.2196 21.2255 28.1763 21.2969C28.133 21.3682 28.068 21.4239 27.9907 21.4556C27.9243 21.4822 27.8717 21.5074 27.8298 21.5296C28.3013 21.6647 29.9369 22.3879 29.4006 25.8415C29.3879 25.9227 29.35 25.9977 29.2922 26.0561C29.2344 26.1144 29.1596 26.153 29.0786 26.1664C28.9145 26.1954 28.7468 26.1115 28.6682 25.9628L27.6597 24.0357C27.2371 24.2142 26.4749 24.459 25.4885 24.459C24.5059 24.459 23.756 24.2164 23.3372 24.0379L22.3302 25.9627C22.2969 26.0258 22.2471 26.0786 22.186 26.1155C22.125 26.1523 22.055 26.1718 21.9837 26.1718ZM27.8305 23.1294C27.8655 23.1294 27.9015 23.134 27.9365 23.1439C27.9876 23.1584 28.0352 23.1832 28.0765 23.2166C28.1178 23.25 28.152 23.2915 28.1769 23.3384L28.7238 24.3843C28.6636 22.5037 27.6345 22.2825 27.5825 22.2726C27.5547 22.267 27.5274 22.2591 27.5009 22.2489C27.404 22.2093 26.9219 21.9896 26.9219 21.5409C26.9219 21.4815 26.9303 21.4265 26.9455 21.3738C25.9407 21.306 24.1952 21.3647 23.1729 22.4877C22.7892 22.908 22.5374 23.4505 22.4184 24.1081L22.8212 23.3384C22.8462 23.291 22.8806 23.2493 22.9223 23.2157C22.964 23.1821 23.0122 23.1574 23.0638 23.1431C23.1155 23.1292 23.1694 23.126 23.2224 23.1336C23.2754 23.1412 23.3263 23.1595 23.372 23.1873C23.3788 23.1911 24.1989 23.6778 25.4882 23.6778C26.7921 23.6778 27.6213 23.1896 27.6297 23.185C27.6904 23.1487 27.7598 23.1295 27.8305 23.1294ZM12.9998 28.5154C11.7075 28.5154 10.6562 27.4641 10.6562 26.1718C10.6562 24.8795 11.7075 23.8282 12.9998 23.8282C14.2922 23.8282 15.3435 24.8795 15.3435 26.1718C15.3435 27.4641 14.2922 28.5154 12.9998 28.5154ZM12.9998 24.6094C12.1386 24.6094 11.4374 25.3106 11.4374 26.1718C11.4374 27.0331 12.1386 27.7342 12.9998 27.7342C13.8611 27.7342 14.5622 27.0331 14.5622 26.1718C14.5622 25.3106 13.8611 24.6094 12.9998 24.6094Z" fill="white"/>
<path d="M12.9999 28.5154C12.9486 28.5155 12.8978 28.5054 12.8504 28.4857C12.803 28.4661 12.7599 28.4374 12.7237 28.4011C12.6874 28.3648 12.6586 28.3217 12.639 28.2743C12.6194 28.2269 12.6093 28.1761 12.6094 28.1248V24.2188C12.6094 24.0029 12.7841 23.8281 12.9999 23.8281C13.2158 23.8281 13.3905 24.0028 13.3905 24.2188V28.1248C13.3905 28.3407 13.2158 28.5154 12.9999 28.5154Z" fill="white"/>
<path d="M35.2656 27.7342C35.0497 27.7342 34.875 27.5595 34.875 27.3436V25C34.875 24.7841 35.0497 24.6094 35.2656 24.6094C35.4815 24.6094 35.6562 24.7841 35.6562 25V27.3436C35.6562 27.5595 35.4815 27.7342 35.2656 27.7342ZM37.6093 27.7342C36.9631 27.7342 36.4375 27.2085 36.4375 26.5624V25.7812C36.4375 25.1351 36.9631 24.6094 37.6093 24.6094C38.2554 24.6094 38.7811 25.1351 38.7811 25.7812V26.5624C38.7811 27.2085 38.2554 27.7342 37.6093 27.7342ZM37.6093 25.3906C37.3941 25.3906 37.2187 25.5661 37.2187 25.7812V26.5624C37.2187 26.7775 37.3941 26.953 37.6093 26.953C37.7128 26.9528 37.812 26.9116 37.8852 26.8384C37.9584 26.7651 37.9996 26.6659 37.9998 26.5624V25.7812C37.9998 25.5661 37.8243 25.3906 37.6093 25.3906ZM40.7341 27.7342C40.0879 27.7342 39.5623 27.2085 39.5623 26.5624V25.7812C39.5623 25.1351 40.0879 24.6094 40.7341 24.6094C41.3802 24.6094 41.9059 25.1351 41.9059 25.7812V26.5624C41.9059 27.2085 41.3802 27.7342 40.7341 27.7342ZM40.7341 25.3906C40.5189 25.3906 40.3435 25.5661 40.3435 25.7812V26.5624C40.3435 26.7775 40.5189 26.953 40.7341 26.953C40.8376 26.9528 40.9368 26.9116 41.01 26.8384C41.0832 26.7651 41.1244 26.6659 41.1246 26.5624V25.7812C41.1246 25.5661 40.9491 25.3906 40.7341 25.3906Z" fill="white"/>
<path d="M48.5459 23.047C48.33 23.047 48.1553 22.8723 48.1553 22.6564C48.1553 22.4404 48.33 22.2657 48.5459 22.2657C49.192 22.2657 49.7177 21.7401 49.7177 21.0939V13.2818C49.7177 12.6357 49.192 12.11 48.5459 12.11H2.45498C1.80889 12.11 1.2832 12.6357 1.2832 13.2818V21.0939C1.2832 21.7401 1.80889 22.2657 2.45498 22.2657C2.6709 22.2657 2.84561 22.4404 2.84561 22.6564C2.84561 22.8723 2.6709 23.047 2.45498 23.047C1.37783 23.047 0.501953 22.1712 0.501953 21.094V13.2819C0.501953 12.2047 1.37783 11.3289 2.45498 11.3289H48.546C49.6231 11.3289 50.4989 12.2047 50.4989 13.2819V21.094C50.4988 22.1712 49.6231 23.047 48.5459 23.047Z" fill="white"/>
<path d="M46.9817 17.5786H4.01562C3.79971 17.5786 3.625 17.4039 3.625 17.188C3.625 16.9721 3.79971 16.7974 4.01562 16.7974H46.9818C47.1977 16.7974 47.3724 16.9721 47.3724 17.188C47.3724 17.4039 47.1976 17.5786 46.9817 17.5786Z" fill="white"/>
<path d="M46.2005 37.1086H4.79688C4.58096 37.1086 4.40625 36.9339 4.40625 36.718C4.40622 36.6667 4.41631 36.6159 4.43593 36.5685C4.45556 36.5211 4.48433 36.478 4.52061 36.4417C4.55689 36.4055 4.59996 36.3767 4.64737 36.3571C4.69477 36.3375 4.74557 36.3274 4.79688 36.3274H46.2006C46.2524 36.3266 46.3039 36.3361 46.352 36.3554C46.4001 36.3747 46.4438 36.4033 46.4808 36.4397C46.5177 36.476 46.547 36.5194 46.567 36.5671C46.587 36.6149 46.5973 36.6662 46.5973 36.7181C46.5973 36.7699 46.587 36.8212 46.567 36.869C46.547 36.9168 46.5176 36.9601 46.4807 36.9964C46.4438 37.0328 46.4 37.0614 46.3519 37.0807C46.3038 37.0999 46.2523 37.1094 46.2005 37.1086Z" fill="white"/>
<path d="M46.2005 38.671H4.79688C4.58096 38.671 4.40625 38.4963 4.40625 38.2805C4.40625 38.0645 4.58096 37.8898 4.79688 37.8898H46.2006C46.2519 37.8898 46.3027 37.8999 46.35 37.9196C46.3974 37.9392 46.4405 37.968 46.4767 38.0043C46.513 38.0405 46.5418 38.0836 46.5614 38.131C46.581 38.1784 46.5911 38.2292 46.5911 38.2805C46.5911 38.3317 46.581 38.3825 46.5614 38.4299C46.5417 38.4773 46.513 38.5204 46.4767 38.5566C46.4404 38.5929 46.3973 38.6216 46.35 38.6413C46.3026 38.6609 46.2518 38.671 46.2005 38.671Z" fill="white"/>
<path d="M3.23633 23.047H2.45508C2.23916 23.047 2.06445 22.8723 2.06445 22.6564C2.06445 22.4405 2.23916 22.2657 2.45508 22.2657H3.23633C3.45215 22.2657 3.62686 22.4405 3.62686 22.6564C3.62686 22.8723 3.45215 23.047 3.23633 23.047Z" fill="white"/>
<path d="M48.5469 23.047H47.7656C47.5497 23.047 47.375 22.8723 47.375 22.6564C47.375 22.4405 47.5497 22.2657 47.7656 22.2657H48.5469C48.7628 22.2657 48.9375 22.4405 48.9375 22.6564C48.9375 22.8723 48.7628 23.047 48.5469 23.047Z" fill="white"/>
</g>
<defs>
<clipPath id="clip0_1835_26923">
<rect width="50" height="50" fill="white" transform="translate(0.5)"/>
</clipPath>
</defs>
</svg>
