<svg width="51" height="50" viewBox="0 0 51 50" fill="none" xmlns="http://www.w3.org/2000/svg">
<path d="M23.4531 7.78906H8.16406C7.75004 7.7903 7.35333 7.95532 7.06057 8.24807C6.76782 8.54083 6.6028 8.93754 6.60156 9.35156V12.8438C6.6028 13.2578 6.76782 13.6545 7.06057 13.9472C7.35333 14.24 7.75004 14.405 8.16406 14.4063H23.4531C23.8675 14.4063 24.265 14.2416 24.558 13.9486C24.851 13.6556 25.0156 13.2582 25.0156 12.8438V9.35156C25.0156 8.93716 24.851 8.53973 24.558 8.24671C24.265 7.95368 23.8675 7.78906 23.4531 7.78906ZM23.4531 12.8438H8.16406V9.35156H23.4531V12.8438Z" fill="white"/>
<path d="M9.07031 17.0547C8.58204 17.0547 8.10473 17.1995 7.69875 17.4707C7.29277 17.742 6.97634 18.1276 6.78949 18.5787C6.60263 19.0298 6.55374 19.5262 6.649 20.0051C6.74426 20.484 6.97938 20.9238 7.32464 21.2691C7.6699 21.6144 8.10979 21.8495 8.58868 21.9448C9.06758 22.04 9.56396 21.9911 10.0151 21.8043C10.4662 21.6174 10.8517 21.301 11.123 20.895C11.3943 20.489 11.5391 20.0117 11.5391 19.5234C11.5376 18.8691 11.2771 18.242 10.8144 17.7794C10.3517 17.3167 9.72462 17.0561 9.07031 17.0547ZM9.07031 20.4297C8.89107 20.4297 8.71586 20.3765 8.56683 20.277C8.4178 20.1774 8.30164 20.0358 8.23305 19.8702C8.16446 19.7046 8.14651 19.5224 8.18148 19.3466C8.21644 19.1708 8.30276 19.0094 8.4295 18.8826C8.55624 18.7559 8.71772 18.6696 8.89351 18.6346C9.06931 18.5996 9.25152 18.6176 9.41712 18.6862C9.58272 18.7548 9.72425 18.8709 9.82383 19.02C9.92341 19.169 9.97656 19.3442 9.97656 19.5234C9.97636 19.7637 9.88081 19.9941 9.7109 20.164C9.54099 20.3339 9.3106 20.4295 9.07031 20.4297Z" fill="white"/>
<path d="M15.8125 17.0547C15.3239 17.0531 14.8458 17.1966 14.4388 17.4669C14.0318 17.7373 13.7142 18.1223 13.5261 18.5733C13.3381 19.0242 13.2881 19.5209 13.3824 20.0003C13.4768 20.4797 13.7113 20.9203 14.0563 21.2663C14.4012 21.6124 14.8411 21.8483 15.3202 21.9442C15.7993 22.0401 16.2961 21.9916 16.7476 21.805C17.1992 21.6184 17.5852 21.302 17.8568 20.8958C18.1284 20.4897 18.2734 20.012 18.2734 19.5234C18.272 18.8705 18.0125 18.2446 17.5515 17.7821C17.0906 17.3197 16.4655 17.0582 15.8125 17.0547ZM15.8125 20.4297C15.6329 20.4312 15.457 20.3794 15.3069 20.2808C15.1568 20.1821 15.0395 20.0411 14.9697 19.8757C14.8999 19.7102 14.8808 19.5278 14.9149 19.3515C14.949 19.1752 15.0347 19.013 15.1611 18.8854C15.2875 18.7579 15.449 18.6708 15.625 18.6352C15.801 18.5996 15.9836 18.6171 16.1497 18.6855C16.3157 18.7538 16.4577 18.87 16.5576 19.0192C16.6576 19.1683 16.7109 19.3439 16.7109 19.5234C16.7107 19.7624 16.6163 19.9916 16.448 20.1613C16.2798 20.331 16.0514 20.4274 15.8125 20.4297Z" fill="white"/>
<path d="M22.5547 17.0547C22.0661 17.0531 21.588 17.1966 21.181 17.4669C20.774 17.7373 20.4564 18.1223 20.2683 18.5733C20.0802 19.0242 20.0302 19.5209 20.1246 20.0003C20.219 20.4797 20.4535 20.9203 20.7984 21.2663C21.1434 21.6124 21.5833 21.8483 22.0624 21.9442C22.5415 22.0401 23.0383 21.9916 23.4898 21.805C23.9414 21.6184 24.3274 21.302 24.599 20.8958C24.8706 20.4897 25.0156 20.012 25.0156 19.5234C25.0156 18.87 24.7566 18.2433 24.2953 17.7805C23.834 17.3178 23.2081 17.0568 22.5547 17.0547ZM22.5547 20.4297C22.3751 20.4312 22.1991 20.3794 22.0491 20.2808C21.899 20.1821 21.7817 20.0411 21.7119 19.8757C21.6421 19.7102 21.623 19.5278 21.6571 19.3515C21.6912 19.1752 21.7769 19.013 21.9033 18.8854C22.0297 18.7579 22.1912 18.6708 22.3672 18.6352C22.5432 18.5996 22.7258 18.6171 22.8919 18.6855C23.0579 18.7538 23.1999 18.87 23.2998 19.0192C23.3998 19.1683 23.4531 19.3439 23.4531 19.5234C23.4529 19.7624 23.3585 19.9916 23.1902 20.1613C23.022 20.331 22.7936 20.4274 22.5547 20.4297Z" fill="white"/>
<path d="M9.07031 23.7969C8.58314 23.7976 8.10713 23.9428 7.70239 24.2139C7.29765 24.485 6.98233 24.87 6.79625 25.3203C6.61018 25.7705 6.5617 26.2658 6.65693 26.7435C6.75216 27.2213 6.98683 27.6601 7.33131 28.0046C7.67579 28.3491 8.11463 28.5838 8.59239 28.679C9.07016 28.7742 9.56544 28.7258 10.0157 28.5397C10.4659 28.3536 10.8509 28.0383 11.122 27.6335C11.3932 27.2288 11.5383 26.7528 11.5391 26.2656C11.5376 25.6113 11.2771 24.9842 10.8144 24.5216C10.3517 24.0589 9.72462 23.7983 9.07031 23.7969ZM9.07031 27.1641C8.89185 27.1633 8.71762 27.1096 8.56966 27.0098C8.4217 26.91 8.30666 26.7686 8.23908 26.6034C8.1715 26.4382 8.15442 26.2567 8.18999 26.0819C8.22556 25.907 8.3122 25.7466 8.43894 25.6209C8.56568 25.4953 8.72683 25.41 8.90202 25.376C9.0772 25.3419 9.25855 25.3606 9.42314 25.4296C9.58772 25.4986 9.72815 25.6148 9.82666 25.7637C9.92516 25.9125 9.97733 26.0872 9.97656 26.2656C9.9747 26.5047 9.87838 26.7333 9.7086 26.9016C9.53883 27.0699 9.30938 27.1643 9.07031 27.1641Z" fill="white"/>
<path d="M15.8125 23.7969C15.325 23.7961 14.8482 23.9399 14.4424 24.2101C14.0367 24.4803 13.7201 24.8648 13.5329 25.3149C13.3456 25.765 13.296 26.2605 13.3904 26.7388C13.4847 27.217 13.7188 27.6566 14.0629 28.0019C14.4071 28.3471 14.8459 28.5826 15.3239 28.6784C15.8019 28.7743 16.2976 28.7263 16.7482 28.5404C17.1989 28.3546 17.5844 28.0393 17.8559 27.6344C18.1273 27.2294 18.2727 26.7531 18.2734 26.2656C18.272 25.6127 18.0125 24.9867 17.5515 24.5243C17.0905 24.0619 16.4655 23.8004 15.8125 23.7969ZM15.8125 27.1641C15.6337 27.1648 15.4587 27.1125 15.3097 27.0136C15.1607 26.9148 15.0445 26.7739 14.9757 26.6088C14.9069 26.4438 14.8887 26.262 14.9234 26.0866C14.9581 25.9112 15.0441 25.7501 15.1705 25.6237C15.297 25.4972 15.4581 25.4112 15.6335 25.3765C15.8089 25.3418 15.9907 25.36 16.1557 25.4288C16.3208 25.4976 16.4616 25.6139 16.5605 25.7628C16.6593 25.9118 16.7117 26.0868 16.7109 26.2656C16.7091 26.5033 16.6139 26.7308 16.4458 26.8989C16.2777 27.067 16.0502 27.1622 15.8125 27.1641Z" fill="white"/>
<path d="M22.5547 23.7969C22.0672 23.7961 21.5904 23.9399 21.1846 24.2101C20.7789 24.4803 20.4623 24.8648 20.2751 25.3149C20.0878 25.765 20.0382 26.2605 20.1325 26.7388C20.2269 27.217 20.4609 27.6566 20.8051 28.0019C21.1493 28.3471 21.5881 28.5826 22.0661 28.6784C22.5441 28.7743 23.0397 28.7263 23.4904 28.5404C23.9411 28.3546 24.3266 28.0393 24.5981 27.6344C24.8695 27.2294 25.0148 26.7531 25.0156 26.2656C25.0156 25.6122 24.7566 24.9855 24.2953 24.5227C23.834 24.06 23.2081 23.7989 22.5547 23.7969ZM22.5547 27.1641C22.3759 27.1648 22.2009 27.1125 22.0519 27.0136C21.9029 26.9148 21.7867 26.7739 21.7179 26.6088C21.6491 26.4438 21.6309 26.262 21.6656 26.0866C21.7003 25.9112 21.7863 25.7501 21.9127 25.6237C22.0392 25.4972 22.2003 25.4112 22.3757 25.3765C22.5511 25.3418 22.7329 25.36 22.8979 25.4288C23.0629 25.4976 23.2038 25.6139 23.3027 25.7628C23.4015 25.9118 23.4539 26.0868 23.4531 26.2656C23.4513 26.5033 23.356 26.7308 23.1879 26.8989C23.0199 27.067 22.7924 27.1622 22.5547 27.1641Z" fill="white"/>
<path d="M9.07031 30.5391C8.58314 30.5398 8.10713 30.685 7.70239 30.9561C7.29765 31.2272 6.98233 31.6122 6.79625 32.0625C6.61018 32.5127 6.5617 33.008 6.65693 33.4857C6.75216 33.9635 6.98683 34.4023 7.33131 34.7468C7.67579 35.0913 8.11463 35.326 8.59239 35.4212C9.07016 35.5164 9.56544 35.4679 10.0157 35.2819C10.4659 35.0958 10.8509 34.7805 11.122 34.3757C11.3932 33.971 11.5383 33.495 11.5391 33.0078C11.5391 32.3531 11.279 31.7251 10.816 31.2621C10.353 30.7992 9.72506 30.5391 9.07031 30.5391ZM9.07031 33.9063C8.89185 33.9055 8.71762 33.8518 8.56966 33.752C8.4217 33.6522 8.30666 33.5108 8.23908 33.3456C8.1715 33.1804 8.15442 32.9989 8.18999 32.824C8.22556 32.6492 8.3122 32.4888 8.43894 32.3631C8.56568 32.2375 8.72683 32.1522 8.90202 32.1182C9.0772 32.0841 9.25855 32.1028 9.42314 32.1718C9.58772 32.2408 9.72815 32.357 9.82666 32.5058C9.92516 32.6547 9.97733 32.8293 9.97656 33.0078C9.9747 33.2469 9.87838 33.4755 9.7086 33.6438C9.53883 33.8121 9.30938 33.9065 9.07031 33.9063Z" fill="white"/>
<path d="M15.8125 30.5391C15.325 30.5383 14.8482 30.6821 14.4424 30.9523C14.0367 31.2225 13.7201 31.6069 13.5329 32.057C13.3456 32.5071 13.296 33.0027 13.3904 33.4809C13.4847 33.9592 13.7188 34.3988 14.0629 34.744C14.4071 35.0893 14.8459 35.3248 15.3239 35.4206C15.8019 35.5165 16.2976 35.4685 16.7482 35.2826C17.1989 35.0968 17.5844 34.7815 17.8559 34.3765C18.1273 33.9716 18.2727 33.4953 18.2734 33.0078C18.2734 32.3544 18.0144 31.7277 17.5531 31.2649C17.0918 30.8021 16.4659 30.5411 15.8125 30.5391ZM15.8125 33.9063C15.6337 33.907 15.4587 33.8547 15.3097 33.7558C15.1607 33.657 15.0445 33.5161 14.9757 33.351C14.9069 33.186 14.8887 33.0042 14.9234 32.8288C14.9581 32.6534 15.0441 32.4923 15.1705 32.3659C15.297 32.2394 15.4581 32.1534 15.6335 32.1187C15.8089 32.084 15.9907 32.1022 16.1557 32.171C16.3208 32.2398 16.4616 32.356 16.5605 32.505C16.6593 32.654 16.7117 32.829 16.7109 33.0078C16.7091 33.2455 16.6139 33.473 16.4458 33.6411C16.2777 33.8092 16.0502 33.9044 15.8125 33.9063Z" fill="white"/>
<path d="M9.07031 37.2813C8.58281 37.282 8.10649 37.4273 7.70158 37.6988C7.29667 37.9703 6.98135 38.3558 6.79551 38.8064C6.60966 39.2571 6.56164 39.7528 6.6575 40.2308C6.75337 40.7088 6.98882 41.1476 7.33408 41.4918C7.67934 41.8359 8.1189 42.07 8.59718 42.1643C9.07547 42.2587 9.57099 42.2091 10.0211 42.0218C10.4712 41.8345 10.8556 41.518 11.1258 41.1122C11.396 40.7065 11.5398 40.2297 11.5391 39.7422C11.5374 39.0887 11.2765 38.4625 10.8137 38.0011C10.3508 37.5397 9.72384 37.2808 9.07031 37.2813ZM9.07031 40.6484C8.89218 40.6477 8.71826 40.5942 8.57047 40.4947C8.42268 40.3953 8.30763 40.2543 8.23982 40.0896C8.17201 39.9249 8.15447 39.7438 8.18941 39.5691C8.22435 39.3944 8.31021 39.234 8.43617 39.108C8.56213 38.9821 8.72255 38.8962 8.89723 38.8613C9.0719 38.8263 9.25301 38.8439 9.41773 38.9117C9.58245 38.9795 9.72341 39.0946 9.82286 39.2423C9.92231 39.3901 9.97579 39.5641 9.97656 39.7422C9.97635 39.9825 9.88081 40.2129 9.7109 40.3828C9.54099 40.5527 9.3106 40.6482 9.07031 40.6484Z" fill="white"/>
<path d="M15.8125 37.2812C15.3247 37.2805 14.8476 37.4245 14.4416 37.695C14.0357 37.9656 13.7192 38.3505 13.5321 38.801C13.3451 39.2516 13.2959 39.7475 13.3909 40.226C13.4859 40.7045 13.7207 41.144 14.0657 41.489C14.4106 41.8339 14.8502 42.0688 15.3287 42.1638C15.8072 42.2587 16.3031 42.2096 16.7537 42.0226C17.2042 41.8355 17.5891 41.519 17.8597 41.113C18.1302 40.7071 18.2742 40.23 18.2734 39.7422C18.2718 39.09 18.012 38.465 17.5508 38.0039C17.0897 37.5427 16.4647 37.2829 15.8125 37.2812ZM15.8125 40.6484C15.5732 40.6484 15.3437 40.5534 15.1744 40.3841C15.0052 40.2149 14.9102 39.9854 14.9102 39.7461C14.9102 39.5068 15.0052 39.2773 15.1744 39.108C15.3437 38.9388 15.5732 38.8437 15.8125 38.8437C16.0518 38.8437 16.2813 38.9388 16.4506 39.108C16.6198 39.2773 16.7148 39.5068 16.7148 39.7461C16.7148 39.9854 16.6198 40.2149 16.4506 40.3841C16.2813 40.5534 16.0518 40.6484 15.8125 40.6484Z" fill="white"/>
<path d="M23.4531 30.5391H21.6484C21.2344 30.5403 20.8377 30.7053 20.5449 30.9981C20.2522 31.2908 20.0872 31.6875 20.0859 32.1016V40.6484C20.0872 41.0625 20.2522 41.4592 20.5449 41.7519C20.8377 42.0447 21.2344 42.2097 21.6484 42.2109H23.4531C23.8675 42.2109 24.265 42.0463 24.558 41.7533C24.851 41.4603 25.0156 41.0628 25.0156 40.6484V32.1016C25.0156 31.6872 24.851 31.2897 24.558 30.9967C24.265 30.7037 23.8675 30.5391 23.4531 30.5391ZM23.4531 40.6484H21.6484V32.1016H23.4531V40.6484Z" fill="white"/>
<path d="M44.4531 8.63281H28.3906V7.48438C28.389 6.44888 27.9769 5.45627 27.2447 4.72406C26.5125 3.99186 25.5199 3.57978 24.4844 3.57812H7.14062C6.10462 3.57812 5.11105 3.98968 4.37849 4.72224C3.64593 5.4548 3.23438 6.44837 3.23438 7.48438V42.5156C3.23438 43.5516 3.64593 44.5452 4.37849 45.2778C5.11105 46.0103 6.10462 46.4219 7.14062 46.4219H24.4844C25.5199 46.4202 26.5125 46.0081 27.2447 45.2759C27.9769 44.5437 28.389 43.5511 28.3906 42.5156V41.3672H44.4531C45.3303 41.3672 46.1717 41.0193 46.7927 40.3997C47.4136 39.7802 47.7636 38.9397 47.7656 38.0625V11.9375C47.7636 11.0603 47.4136 10.2198 46.7927 9.60026C46.1717 8.98073 45.3303 8.63281 44.4531 8.63281ZM26.8281 42.5156C26.8281 43.1372 26.5812 43.7334 26.1417 44.1729C25.7021 44.6124 25.106 44.8594 24.4844 44.8594H7.14062C6.51902 44.8594 5.92288 44.6124 5.48334 44.1729C5.04381 43.7334 4.79688 43.1372 4.79688 42.5156V7.48438C4.79688 6.86277 5.04381 6.26663 5.48334 5.82709C5.92288 5.38756 6.51902 5.14063 7.14062 5.14062H24.4844C24.7922 5.14062 25.0969 5.20125 25.3813 5.31903C25.6656 5.43682 25.924 5.60946 26.1417 5.82709C26.3593 6.04473 26.5319 6.3031 26.6497 6.58746C26.7675 6.87182 26.8281 7.17659 26.8281 7.48438V42.5156ZM31.8828 39.8047H28.3906V10.1953H31.8828V39.8047ZM46.2031 38.0625C46.2027 38.2918 46.1571 38.5188 46.0689 38.7305C45.9807 38.9422 45.8517 39.1345 45.6892 39.2963C45.5267 39.4581 45.3338 39.5862 45.1217 39.6735C44.9097 39.7607 44.6825 39.8053 44.4531 39.8047H33.4453V10.1953H44.4531C44.6825 10.1947 44.9097 10.2393 45.1217 10.3265C45.3338 10.4138 45.5267 10.5419 45.6892 10.7037C45.8517 10.8655 45.9807 11.0578 46.0689 11.2695C46.1571 11.4812 46.2027 11.7082 46.2031 11.9375V38.0625Z" fill="white"/>
<path d="M44.3984 28.3672C44.3984 27.154 43.9165 25.9906 43.0587 25.1327C42.2008 24.2749 41.0374 23.793 39.8242 23.793C38.6111 23.793 37.4476 24.2749 36.5898 25.1327C35.7319 25.9906 35.25 27.154 35.25 28.3672C35.2509 29.2702 35.5231 30.152 36.0312 30.8984C35.5232 31.642 35.251 32.5213 35.25 33.4219C35.25 34.635 35.7319 35.7985 36.5898 36.6563C37.4476 37.5142 38.6111 37.9961 39.8242 37.9961C41.0374 37.9961 42.2008 37.5142 43.0587 36.6563C43.9165 35.7985 44.3984 34.635 44.3984 33.4219C44.3974 32.5213 44.1252 31.642 43.6172 30.8984C44.1253 30.152 44.3975 29.2702 44.3984 28.3672ZM39.8203 36.4375C39.0219 36.4354 38.2568 36.1168 37.693 35.5515C37.1291 34.9862 36.8125 34.2203 36.8125 33.4219C36.8081 32.6837 37.0846 31.9715 37.5859 31.4297V31.4219L37.5938 31.4141C37.874 31.0995 38.2176 30.8478 38.602 30.6755C38.9864 30.5032 39.4029 30.4141 39.8242 30.4141C40.2455 30.4141 40.662 30.5032 41.0464 30.6755C41.4308 30.8478 41.7744 31.0995 42.0547 31.4141V31.4219C42.0625 31.4219 42.0625 31.4219 42.0625 31.4297C42.5638 31.9715 42.8403 32.6837 42.8359 33.4219C42.8355 34.2215 42.5177 34.9883 41.9522 35.5538C41.3868 36.1192 40.62 36.4371 39.8203 36.4375ZM42.5078 29.7266C42.3375 29.6025 42.1572 29.4928 41.9688 29.3984C41.9236 29.3694 41.8766 29.3433 41.8281 29.3203C41.6406 29.2344 41.4453 29.1484 41.2422 29.0781C41.0395 29.0167 40.8334 28.9672 40.625 28.9297L40.4688 28.9063C40.2542 28.8722 40.0375 28.8539 39.8203 28.8516C39.6057 28.8539 39.3916 28.8722 39.1797 28.9063L39.0234 28.9297C38.8148 28.9663 38.6087 29.0158 38.4063 29.0781H38.3984C38.1985 29.1501 38.0028 29.2335 37.8125 29.3281C37.7645 29.3437 37.7195 29.3675 37.6797 29.3984C37.4928 29.491 37.3149 29.6009 37.1484 29.7266H37.1328C36.9198 29.3052 36.81 28.8393 36.8125 28.3672C36.8125 27.5684 37.1298 26.8024 37.6946 26.2376C38.2594 25.6728 39.0255 25.3555 39.8242 25.3555C40.623 25.3555 41.389 25.6728 41.9538 26.2376C42.5186 26.8024 42.8359 27.5684 42.8359 28.3672C42.8358 28.8399 42.7233 29.3058 42.5078 29.7266Z" fill="white"/>
</svg>
