<svg width="341" height="56" viewBox="0 0 341 56" fill="none" xmlns="http://www.w3.org/2000/svg">
<g clip-path="url(#clip0_1757_26299)">
<path d="M79.8354 27.1476C79.8354 33.8518 84.843 38.325 90.9137 38.325C94.208 38.3321 97.4392 37.4222 100.246 35.6973V42.2087C98.9842 42.991 95.1941 44.4123 90.9633 44.4123C81.0915 44.3958 73.2744 36.9092 73.2744 27.1476C73.2744 17.3859 81.0915 9.91592 90.9633 9.91592C95.1941 9.91592 98.9842 11.3262 100.246 12.1195V18.5923C97.4369 16.874 94.2065 15.9682 90.9137 15.9756C84.843 15.9756 79.8354 20.4433 79.8354 27.1476ZM129.294 27.5442V43.911H123.234V29.4778C123.234 26.6132 121.967 24.4758 118.711 24.4758C115.555 24.4758 113.709 26.4645 113.709 30.0617V43.911H107.65V8.43955H113.709V23.6495C114.145 22.5477 115.847 19.1267 120.948 19.1267C126.187 19.1267 129.294 22.2392 129.294 27.5442ZM162.242 38.8098V43.911H154.42C154.292 43.9187 154.165 43.8998 154.045 43.8556C153.926 43.8114 153.817 43.7429 153.725 43.6543C153.633 43.5657 153.561 43.4591 153.513 43.3411C153.465 43.2231 153.441 43.0964 153.445 42.969V38.617C152.618 41.4816 150.387 44.3958 145.732 44.3958C139.414 44.3958 134.847 39.6857 134.847 31.764C134.847 23.7431 139.849 19.1267 146.068 19.1267C151.803 19.1267 152.971 23.8423 152.971 23.8423V19.617H159.031V38.8098H162.242ZM153.153 31.8136C153.153 27.2467 150.949 24.3766 147.324 24.3766C143.826 24.3766 141.154 26.9548 141.154 31.764C141.154 36.5732 143.358 39.1513 147.032 39.1513C150.773 39.1513 153.153 36.7219 153.153 31.8136ZM176.152 20.5865V43.911H170.092V24.7182H165.685V19.617H175.204C175.332 19.613 175.459 19.6355 175.577 19.6831C175.695 19.7307 175.802 19.8023 175.891 19.8935C175.98 19.9847 176.05 20.0933 176.094 20.2126C176.139 20.3319 176.159 20.4593 176.152 20.5865ZM175.959 14.5599H169.398V8.43955H175.959V14.5599ZM183.231 19.617H189.208V23.9414C189.406 23.3079 190.861 19.1267 196.546 19.1267C201.796 19.1267 204.908 22.2392 204.908 27.5332V43.911H198.848V29.4778C198.848 26.6132 197.587 24.4758 194.331 24.4758C191.169 24.4758 189.324 26.4645 189.324 30.0617V43.911H183.264L183.231 19.617ZM237.851 38.8098V43.911H230.028C229.901 43.9187 229.774 43.8998 229.654 43.8556C229.535 43.8114 229.426 43.7429 229.334 43.6543C229.242 43.5657 229.17 43.4591 229.122 43.3411C229.073 43.2231 229.05 43.0964 229.053 42.969V38.617C228.227 41.4816 225.996 44.3958 221.341 44.3958C215.022 44.3958 210.456 39.6857 210.456 31.764C210.456 23.7431 215.458 19.1267 221.683 19.1267C227.417 19.1267 228.58 23.8423 228.58 23.8423V19.617H234.639V38.8098H237.851ZM228.761 31.8136C228.761 27.2467 226.558 24.3766 222.933 24.3766C219.435 24.3766 216.763 26.9548 216.763 31.764C216.763 36.5732 218.994 39.1513 222.669 39.1513C226.382 39.1513 228.761 36.7219 228.761 31.8136ZM250.246 9.91592V43.911H244.153V13.5407H240.363V8.43955H248.77C248.964 8.43733 249.157 8.47401 249.337 8.54742C249.517 8.62083 249.681 8.72949 249.818 8.86703C249.956 9.00457 250.065 9.1682 250.138 9.34833C250.211 9.52845 250.248 9.72142 250.246 9.91592ZM261.159 55.0884H255.099V49.9872H259.578C261.181 49.9872 261.914 49.5024 262.492 48.0426L264.293 43.4758L254.939 19.617H261.693L267.378 36.766L273.262 19.617H280.016L268.062 50.3728C266.8 53.6286 264.707 55.0884 261.159 55.0884ZM283.382 42.3575V36.4795C284.208 37.0304 287.557 39.234 291.303 39.234C294.168 39.234 295.429 38.4076 295.429 36.8046C295.429 31.9953 283.04 35.543 283.04 26.4094C283.04 22.2778 286.538 19.1157 292.956 19.1157C296.498 19.1157 299.016 20.0412 300.002 20.6251V26.4424C298.784 25.6602 296.355 24.1067 293.05 24.1067C290.185 24.1067 289.116 24.9826 289.116 26.3433C289.116 30.2766 301.456 27.5552 301.456 36.5016C301.456 41.3604 297.424 44.4178 291.54 44.4178C287.673 44.3958 284.5 43.0846 283.382 42.3575ZM315.988 20.5865V43.911H309.929V24.7182H305.522V19.617H315.046C315.174 19.6129 315.3 19.6354 315.418 19.6831C315.536 19.7307 315.643 19.8025 315.732 19.8937C315.82 19.985 315.889 20.0937 315.933 20.213C315.977 20.3323 315.996 20.4595 315.988 20.5865ZM315.796 14.5599H309.235V8.43955H315.796V14.5599ZM322.483 42.3575V36.4795C323.304 37.0304 326.659 39.234 330.4 39.234C333.27 39.234 334.531 38.4076 334.531 36.8046C334.531 31.9953 322.142 35.543 322.142 26.4094C322.142 22.2778 325.64 19.1157 332.058 19.1157C335.605 19.1157 338.117 20.0412 339.104 20.6251V26.4424C337.071 24.9921 334.653 24.179 332.157 24.1067C329.287 24.1067 328.218 24.9826 328.218 26.3433C328.218 30.2766 340.563 27.5552 340.563 36.5016C340.563 41.3604 336.531 44.4178 330.647 44.4178C326.786 44.3958 323.596 43.0846 322.483 42.3575Z" fill="white"/>
<path d="M28.2074 0C28.8244 0 29.524 0.0771238 29.524 0.0771238C27.4539 2.55988 26.2065 5.62453 25.9543 8.8472C22.0539 9.49968 18.4631 11.3784 15.7032 14.2106C12.9433 17.0428 11.158 20.6811 10.6066 24.597C7.04242 24.9826 3.00994 26.6132 0.690723 28.9434C0.139839 12.9568 12.3915 0 28.2074 0ZM32.1738 48.0261C31.4442 48.1339 30.7077 48.1873 29.9702 48.1858C28.6974 48.1706 27.4272 48.0657 26.1691 47.8718C25.1862 50.2384 23.8892 52.4619 22.3129 54.4824C17.3688 53.3921 12.8208 50.9601 9.16867 47.4537C5.5165 43.9473 2.90142 39.5022 1.6107 34.6065C4.09519 31.6593 9.8354 29.9516 13.3996 29.9516C21.0018 29.9516 25.0343 33.984 26.4335 40.2696C21.8557 39.0301 19.1398 36.4685 17.355 32.6674C16.3119 32.2887 15.2088 32.1021 14.0992 32.1165C13.098 32.1125 12.1027 32.2706 11.152 32.5848C13.1682 40.2696 20.6162 46.0098 29.6893 46.0098C38.0682 46.0098 41.6324 41.746 41.6324 41.746V35.2235C41.6324 35.2235 37.5228 39.4929 32.4051 40.3467C31.8294 36.3622 29.9755 32.6723 27.1223 29.832C24.2691 26.9917 20.5708 25.1546 16.5837 24.597C17.9003 18.08 22.8638 14.4332 29.6121 14.4332C36.3605 14.4332 41.7922 19.3195 41.7922 19.3195V12.8797C41.7922 12.8797 38.2996 9.61844 32.0966 8.92432C32.2509 6.05973 34.1129 2.48449 36.1291 1.16237C44.5797 3.8011 52.7272 10.9406 55.052 21.3357C55.052 21.3357 51.328 25.0597 44.3483 25.0597C38.6081 25.0597 34.9833 22.1896 32.945 17.149C31.8758 16.7682 30.747 16.5816 29.6121 16.5981C28.553 16.5865 27.501 16.7734 26.5107 17.149C28.7583 25.2195 35.8757 30.6457 43.8084 30.6457C51.5649 30.6457 55.7516 27.0815 55.7516 27.0815C55.7516 43.2169 43.4173 54.7799 28.7583 55.0884C30.466 53.4358 31.7826 49.8109 32.1738 48.0261Z" fill="white"/>
</g>
<defs>
<clipPath id="clip0_1757_26299">
<rect width="339.895" height="55.0884" fill="white" transform="translate(0.662109)"/>
</clipPath>
</defs>
</svg>
