<svg width="195" height="56" viewBox="0 0 195 56" fill="none" xmlns="http://www.w3.org/2000/svg">
<g clip-path="url(#clip0_1757_26302)">
<path fill-rule="evenodd" clip-rule="evenodd" d="M8.57042 34.2247C8.57042 34.6919 8.87372 35.0708 9.24773 35.0708H15.9059C16.28 35.0708 16.5832 34.6919 16.5832 34.2247V30.0664H19.9124C20.2863 30.0664 20.5897 29.6875 20.5897 29.2203V25.9079C20.5897 25.4407 20.2863 25.062 19.9124 25.062H9.24773C8.87372 25.062 8.57042 25.4407 8.57042 25.9079V34.2247ZM8.57042 15.8704C8.57042 15.4032 8.26713 15.0244 7.89312 15.0244H1.23492C0.860911 15.0244 0.557617 15.4032 0.557617 15.8704V24.1873C0.557617 24.6545 0.860911 25.0332 1.23492 25.0332H3.88672C4.26073 25.0332 4.56402 24.6545 4.56402 24.1873V20.0288H7.89312C8.26713 20.0288 8.57042 19.65 8.57042 19.1828V15.8704ZM12.5768 45.8969C12.5768 45.4297 12.2735 45.051 11.8995 45.051H9.24773C8.87372 45.051 8.57042 45.4297 8.57042 45.8969V49.2093C8.57042 49.6765 8.87372 50.0554 9.24773 50.0554H11.8995C12.2735 50.0554 12.5768 49.6765 12.5768 49.2093V45.8969ZM59.9764 15.0244H53.3181C52.9442 15.0244 52.6408 15.4032 52.6408 15.8704V19.1828C52.6408 19.65 52.9442 20.0288 53.3181 20.0288H56.6473V24.1873C56.6473 24.6545 56.9505 25.0332 57.3246 25.0332H59.9764C60.3504 25.0332 60.6537 24.6545 60.6537 24.1873V15.8704C60.6537 15.4032 60.3504 15.0244 59.9764 15.0244ZM51.9635 25.0332H41.2989C40.9249 25.0332 40.6216 25.4121 40.6216 25.8793V29.1917C40.6216 29.6588 40.9249 30.0377 41.2989 30.0377H44.6281V34.1961C44.6281 34.6632 44.9313 35.0421 45.3054 35.0421H51.9635C52.3376 35.0421 52.6408 34.6632 52.6408 34.1961V25.8793C52.6408 25.4121 52.3376 25.0332 51.9635 25.0332ZM47.9572 50.084H44.6281V45.9257C44.6281 45.4585 44.3248 45.0795 43.9508 45.0795H40.6216V35.9168C40.6216 35.4496 40.3184 35.0708 39.9443 35.0708H36.6153V25.9079C36.6153 25.4407 36.3119 25.062 35.938 25.062H25.2733C24.8994 25.062 24.596 25.4407 24.596 25.9079V35.0708H21.267C20.8928 35.0708 20.5897 35.4496 20.5897 35.9168V45.0795H17.2606C16.8865 45.0795 16.5832 45.4585 16.5832 45.9257V50.084H13.2541C12.8801 50.084 12.5768 50.4629 12.5768 50.9301V54.2425C12.5768 54.7097 12.8801 55.0884 13.2541 55.0884H19.9124C20.2863 55.0884 20.5897 54.7097 20.5897 54.2425V50.084H23.9187C24.2927 50.084 24.596 49.7053 24.596 49.238V40.0751H36.6153V49.238C36.6153 49.7053 36.9186 50.084 37.2925 50.084H40.6216V54.2425C40.6216 54.7097 40.9249 55.0884 41.2989 55.0884H47.9572C48.3311 55.0884 48.6345 54.7097 48.6345 54.2425V50.9301C48.6345 50.4629 48.3311 50.084 47.9572 50.084ZM51.9635 45.051H49.3118C48.9378 45.051 48.6345 45.4297 48.6345 45.8969V49.2093C48.6345 49.6765 48.9378 50.0554 49.3118 50.0554H51.9635C52.3376 50.0554 52.6408 49.6765 52.6408 49.2093V45.8969C52.6408 45.4297 52.3376 45.051 51.9635 45.051Z" fill="white"/>
<path fill-rule="evenodd" clip-rule="evenodd" d="M17.2613 15.024H43.9516C44.3255 15.024 44.6288 14.6449 44.6288 14.1774V10.8626C44.6288 10.395 44.3255 10.016 43.9516 10.016H40.6225V5.85462C40.6225 5.38713 40.3192 5.008 39.9452 5.008H36.6161V0.846626C36.6161 0.379117 36.3128 0 35.9387 0H25.2742C24.9001 0 24.5969 0.379117 24.5969 0.846626V5.008H21.2677C20.8937 5.008 20.5904 5.38713 20.5904 5.85462V10.016H17.2613C16.8874 10.016 16.584 10.395 16.584 10.8626V14.1774C16.584 14.6449 16.8874 15.024 17.2613 15.024Z" fill="white"/>
<path fill-rule="evenodd" clip-rule="evenodd" d="M129.812 24.5359C127.705 24.5359 125.801 25.6197 124.461 27.3578C123.152 25.613 121.288 24.5224 119.222 24.5224C118.062 24.5224 116.879 25.053 115.967 25.8198V25.5657C115.967 25.1992 115.724 24.9204 115.441 24.9204H112.501C112.22 24.9204 111.975 25.1992 111.975 25.5657V43.8691C111.975 44.2356 112.218 44.5144 112.501 44.5144H115.448C115.729 44.5144 115.974 44.2356 115.974 43.8691V33.4762C115.974 31.2367 117.429 29.4243 119.222 29.4243C121.015 29.4243 122.469 31.2389 122.469 33.4762V43.8691C122.469 44.2356 122.712 44.5144 122.995 44.5144H125.873C125.88 44.5144 125.885 44.5144 125.889 44.5144H125.954C126.235 44.5144 126.48 44.2356 126.48 43.8691V33.4829C126.48 31.2546 127.966 29.4332 129.812 29.4332C131.659 29.4332 133.144 31.2546 133.144 33.4829V43.8669C133.144 44.2334 133.388 44.5121 133.671 44.5121H136.628C136.911 44.5121 137.154 44.2334 137.154 43.8669V33.4829C137.152 28.5339 133.86 24.5359 129.812 24.5359ZM151.855 34.3666C150.733 33.5144 149.292 33.1052 148.036 32.7499L148.012 32.7432C147.1 32.4846 146.298 32.2553 145.721 31.9179C145.15 31.5851 144.891 31.2029 144.891 30.6767C144.891 30.2225 145.027 29.82 145.352 29.5029C145.686 29.1769 146.238 28.925 147.09 28.8622C148.543 28.8622 149.668 28.9049 150.43 28.9476C150.812 28.9679 151.102 28.9903 151.295 29.0061C151.393 29.0151 151.466 29.0195 151.515 29.024C151.54 29.0263 151.558 29.0285 151.569 29.0285L151.581 29.0307H151.586L151.598 29.033H151.61C151.836 29.033 152.041 28.9791 152.182 28.7969C152.306 28.635 152.332 28.4282 152.343 28.327C152.343 28.3203 152.344 28.3135 152.344 28.3091C152.35 28.2662 152.354 28.2347 152.358 28.2056L152.366 28.1674V25.912C152.366 25.6376 152.351 25.3858 152.267 25.1924C152.163 24.9519 151.988 24.8753 151.847 24.8371L151.833 24.8349L151.821 24.8326H151.816L151.802 24.8304C151.789 24.8282 151.771 24.8259 151.748 24.8237C151.698 24.817 151.627 24.808 151.532 24.7967C151.338 24.7743 151.05 24.745 150.66 24.7158C149.882 24.6572 148.699 24.5989 147.079 24.5989H147.074H147.068C144.996 24.6956 143.423 25.415 142.365 26.5528C141.303 27.6929 140.78 29.2309 140.78 30.8948C140.78 31.9898 140.982 32.8871 141.339 33.6268C141.694 34.3643 142.193 34.9243 142.763 35.3628C143.887 36.2239 145.325 36.64 146.578 37.002L146.604 37.0087C147.517 37.2718 148.32 37.5056 148.897 37.8475C149.467 38.1847 149.732 38.5738 149.732 39.1157C149.732 39.5676 149.564 39.9701 149.159 40.2781C148.736 40.5974 148.053 40.811 147.048 40.811C145.905 40.811 144.657 40.6582 143.69 40.5031C143.207 40.4266 142.798 40.3478 142.507 40.2894C142.362 40.2602 142.248 40.2354 142.17 40.2197C142.149 40.2152 142.13 40.2107 142.114 40.2085C142.102 40.2061 142.088 40.2039 142.08 40.2016L142.058 40.1971L142.051 40.1949L142.026 40.1882H142C141.795 40.1882 141.601 40.2354 141.463 40.4086C141.342 40.5592 141.316 40.7594 141.305 40.8515C141.303 40.8582 141.303 40.8651 141.303 40.8696C141.295 40.919 141.29 40.9505 141.284 40.982L141.277 41.018L141.164 43.5632V43.5723C141.164 43.7386 141.183 43.9366 141.256 44.1143C141.329 44.3031 141.463 44.4717 141.667 44.5369L141.674 44.5391L141.682 44.5414L141.69 44.483C141.682 44.5414 141.682 44.5414 141.682 44.5414L141.689 44.5436C141.692 44.5459 141.7 44.5459 141.708 44.5481C141.725 44.5527 141.75 44.5572 141.783 44.5662C141.847 44.5818 141.941 44.6022 142.065 44.6269C142.314 44.6764 142.676 44.7416 143.146 44.8091C144.08 44.9416 145.428 45.0721 147.086 45.0721H147.1C147.304 45.0744 148.961 45.09 150.577 44.3322C151.389 43.9523 152.207 43.3699 152.824 42.4751C153.446 41.5733 153.848 40.3703 153.848 38.7919C153.848 37.708 153.644 36.8176 153.288 36.0846C152.927 35.3514 152.427 34.7983 151.855 34.3666ZM185.083 24.9316C183.438 24.9316 181.899 25.5095 180.607 26.5101V18.1239C180.607 17.7574 180.364 17.4785 180.08 17.4785H177.13C176.849 17.4785 176.604 17.7574 176.604 18.1239V43.8736C176.604 44.2401 176.848 44.519 177.13 44.519H180.08C180.362 44.519 180.607 44.2401 180.607 43.8736V43.0168C181.826 44.2041 183.442 45.0699 185.083 45.0699C189.674 45.0699 193.41 40.5726 193.41 35.0008C193.41 29.4287 189.674 24.9316 185.083 24.9316ZM185.083 40.2085C182.704 40.2085 180.773 37.8767 180.773 35.0008C180.773 32.1248 182.702 29.793 185.083 29.793C187.463 29.793 189.394 32.1248 189.394 35.0008C189.394 37.8767 187.466 40.2085 185.083 40.2085ZM172.066 24.9316H169.109C168.825 24.9316 168.582 25.2105 168.582 25.577V36.2217C168.582 38.4185 167.1 40.2197 165.25 40.2197C165.242 40.2197 165.234 40.2197 165.225 40.2197C165.216 40.2197 165.209 40.2197 165.199 40.2197C163.35 40.2197 161.868 38.4185 161.868 36.2217V25.577C161.868 25.2105 161.624 24.9316 161.342 24.9316H158.385C158.101 24.9316 157.857 25.2105 157.857 25.577V36.2217C157.857 41.119 161.154 45.0677 165.199 45.0677C165.209 45.0677 165.216 45.0677 165.225 45.0677C165.234 45.0677 165.242 45.0677 165.25 45.0677C169.295 45.0677 172.592 41.119 172.592 36.2217V25.577C172.592 25.2105 172.348 24.9316 172.066 24.9316ZM87.2441 34.3666C86.1208 33.5144 84.6803 33.1052 83.4253 32.7499L83.4 32.7432C82.4877 32.4846 81.6872 32.2553 81.1102 31.9179C80.5387 31.5851 80.2791 31.2029 80.2791 30.6767C80.2791 30.2225 80.4161 29.82 80.7406 29.5029C81.0742 29.1769 81.6259 28.925 82.4786 28.8622C83.9319 28.8622 85.0571 28.9049 85.8178 28.9476C86.2001 28.9679 86.4905 28.9903 86.6833 29.0061C86.7806 29.0151 86.8546 29.0195 86.9033 29.024C86.9285 29.0263 86.9466 29.0285 86.9573 29.0285L86.97 29.0307H86.9736L86.9863 29.033H86.9989C87.2242 29.033 87.4297 28.9791 87.5705 28.7969C87.6948 28.635 87.72 28.4282 87.7309 28.327C87.7309 28.3203 87.7327 28.3135 87.7327 28.3091C87.7381 28.2662 87.7417 28.2347 87.7472 28.2056L87.7543 28.1674V25.912C87.7543 25.6376 87.7399 25.3858 87.6552 25.1924C87.5506 24.9519 87.3757 24.8753 87.2351 24.8371L87.2224 24.8349L87.2098 24.8326H87.2044L87.1899 24.8304C87.1774 24.8282 87.1594 24.8259 87.1358 24.8237C87.0872 24.817 87.015 24.808 86.9195 24.7967C86.7266 24.7743 86.4381 24.745 86.0486 24.7158C85.2698 24.6572 84.087 24.5989 82.4679 24.5989H82.4625H82.457C80.3836 24.6956 78.8114 25.415 77.753 26.5528C76.6928 27.6929 76.1699 29.2309 76.1699 30.8948C76.1699 31.9898 76.372 32.8871 76.7289 33.6268C77.0841 34.3643 77.5835 34.9243 78.1532 35.3628C79.2766 36.2239 80.7154 36.64 81.9685 37.002L81.9937 37.0087C82.9078 37.2718 83.7101 37.5056 84.2872 37.8475C84.8569 38.1847 85.1219 38.5738 85.1219 39.1157C85.1219 39.5676 84.9542 39.9701 84.5486 40.2781C84.1266 40.5974 83.4434 40.811 82.4372 40.811C81.2941 40.811 80.0465 40.6582 79.0801 40.5031C78.5968 40.4266 78.1875 40.3478 77.8972 40.2894C77.753 40.2602 77.6376 40.2354 77.5601 40.2197C77.5385 40.2152 77.5204 40.2107 77.5042 40.2085C77.4916 40.2061 77.479 40.2039 77.47 40.2016L77.4482 40.1971L77.4411 40.1949L77.4159 40.1882H77.3888C77.1833 40.1882 76.9885 40.2354 76.8515 40.4086C76.7307 40.5592 76.7037 40.7594 76.6928 40.8515C76.6911 40.8582 76.6911 40.8651 76.6911 40.8696C76.6839 40.919 76.6784 40.9505 76.673 40.982L76.6659 41.018L76.5487 43.561V43.5701C76.5487 43.7364 76.5685 43.9344 76.6405 44.1119C76.7145 44.3009 76.8479 44.4694 77.0516 44.5347L77.0589 44.5369L77.0661 44.5391L77.075 44.4808C77.0661 44.5391 77.0661 44.5391 77.0661 44.5391H77.0679L77.0732 44.5414C77.077 44.5436 77.0841 44.5436 77.0931 44.5459C77.1093 44.5503 77.1347 44.555 77.167 44.5639C77.2319 44.5796 77.3257 44.5999 77.4502 44.6245C77.6989 44.6741 78.0614 44.7394 78.5302 44.8067C79.4641 44.9394 80.8128 45.0699 82.4715 45.0699H82.4842C82.6878 45.0721 84.3448 45.0878 85.9622 44.33C86.7735 43.95 87.5921 43.3677 88.2087 42.4728C88.8308 41.5711 89.2328 40.3681 89.2328 38.7896C89.2328 37.7058 89.0291 36.8154 88.6721 36.0822C88.315 35.3514 87.8156 34.7983 87.2441 34.3666ZM107.443 24.9316H104.486C104.202 24.9316 103.959 25.2105 103.959 25.577V36.2217C103.959 38.4185 102.477 40.2197 100.627 40.2197C100.618 40.2197 100.611 40.2197 100.602 40.2197C100.593 40.2197 100.586 40.2197 100.577 40.2197C98.7268 40.2197 97.2447 38.4185 97.2447 36.2217V25.577C97.2447 25.2105 97.0013 24.9316 96.7182 24.9316H93.7613C93.4783 24.9316 93.2348 25.2105 93.2348 25.577V36.2217C93.2348 41.119 96.5307 45.0677 100.577 45.0677C100.586 45.0677 100.593 45.0677 100.602 45.0677C100.611 45.0677 100.618 45.0677 100.627 45.0677C104.671 45.0677 107.969 41.119 107.969 36.2217V25.577C107.969 25.2105 107.726 24.9316 107.443 24.9316Z" fill="white"/>
</g>
<defs>
<clipPath id="clip0_1757_26302">
<rect width="194.187" height="55.0884" fill="white" transform="translate(0.557617)"/>
</clipPath>
</defs>
</svg>
