<svg width="180" height="56" viewBox="0 0 180 56" fill="none" xmlns="http://www.w3.org/2000/svg">
<g clip-path="url(#clip0_1757_26293)">
<path d="M78.2142 54.8074H64.0278L72.8941 0.318369H87.0819L78.2142 54.8074ZM52.0934 0.318369L38.5688 37.7964L36.9684 29.7259L36.9699 29.7288L32.1964 5.22448C32.1964 5.22448 31.6192 0.318369 25.4669 0.318369H3.10806L2.8457 1.241C2.8457 1.241 9.68307 2.66356 17.685 7.46911L30.0101 54.8089H44.7911L67.3613 0.318369H52.0934ZM163.676 54.8074H176.702L165.345 0.316912H153.941C148.675 0.316912 147.392 4.37765 147.392 4.37765L126.235 54.8074H141.023L143.98 46.7136H162.015L163.676 54.8074ZM148.066 35.5328L155.52 15.1417L159.713 35.5328H148.066ZM127.344 13.4217L129.368 1.72053C129.368 1.72053 123.121 -0.655273 116.609 -0.655273C109.569 -0.655273 92.8509 2.42161 92.8509 17.3834C92.8509 31.4604 112.472 31.6353 112.472 39.0294C112.472 46.4236 94.8725 45.0987 89.0642 40.436L86.9551 52.6707C86.9551 52.6707 93.2896 55.7476 102.968 55.7476C112.649 55.7476 127.253 50.735 127.253 37.0924C127.253 22.925 107.456 21.6059 107.456 15.4463C107.457 9.28522 121.273 10.0767 127.344 13.4217Z" fill="white"/>
<path d="M36.9699 29.7278L32.1964 5.22349C32.1964 5.22349 31.6192 0.317383 25.4669 0.317383H3.10806L2.8457 1.24001C2.8457 1.24001 13.5922 3.46715 23.9 11.8116C33.756 19.7873 36.9699 29.7278 36.9699 29.7278Z" fill="white"/>
</g>
<defs>
<clipPath id="clip0_1757_26293">
<rect width="179.037" height="55.0884" fill="white" transform="translate(0.255859)"/>
</clipPath>
</defs>
</svg>
